 http://www.imdb.com/title/tt0118715/

General
Format                           : Matroska
Format version                   : Version 2
File size                        : 3.63 GiB
Duration                         : 1h 52mn
Overall bit rate                 : 4 618 Kbps
Writing application              : mkvmerge v5.1.0 ('And so it goes') built on Nov 28 2011 23:58:28
Writing library                  : libebml v1.2.3 + libmatroska v1.3.0

Video
ID                               : 1
Format                           : MPEG Video
Format version                   : Version 2
Format profile                   : Main@Main
Format settings, BVOP            : No
Format settings, Matrix          : Default
Codec ID                         : V_MPEG2
Codec ID/Info                    : MPEG 1 or 2 Video
Duration                         : 1h 52mn
Bit rate                         : 4 142 Kbps
Maximum bit rate                 : 7 500 Kbps
Width                            : 720 pixels
Height                           : 576 pixels
Display aspect ratio             : 4:3
Frame rate                       : 25.000 fps
Standard                         : PAL
Color space                      : YUV
Chroma subsampling               : 4:2:0
Bit depth                        : 8 bits
Scan type                        : Interlaced
Scan order                       : Top Field First
Compression mode                 : Lossy
Bits/(Pixel*Frame)               : 0.400
Stream size                      : 3.26 GiB (90%)
Default                          : Yes
Forced                           : No
Color primaries                  : BT.470-2 System B, BT.470-2 System G
Transfer characteristics         : BT.470-2 System B, BT.470-2 System G
Matrix coefficients              : BT.470-2 System B, BT.470-2 System G

Audio
ID                               : 2
Format                           : AC-3
Format/Info                      : Audio Coding 3
Mode extension                   : CM (complete main)
Muxing mode                      : Header stripping
Codec ID                         : A_AC3
Duration                         : 1h 52mn
Bit rate mode                    : Constant
Bit rate                         : 384 Kbps
Channel(s)                       : 6 channels
Channel positions                : Front: L C R, Side: L R, LFE
Sampling rate                    : 48.0 KHz
Bit depth                        : 16 bits
Compression mode                 : Lossy
Stream size                      : 309 MiB (8%)
Language                         : English
Default                          : Yes
Forced                           : No